<?xml version="1.0" standalone="no"?>
<!DOCTYPE svg PUBLIC "-//W3C//DTD SVG 1.1//EN" "http://www.w3.org/Graphics/SVG/1.1/DTD/svg11.dtd" >
<svg xmlns="http://www.w3.org/2000/svg">
<metadata></metadata>
<defs>
<font id="avalonregular" horiz-adv-x="1134" >
<font-face units-per-em="2048" ascent="1638" descent="-410" />
<missing-glyph horiz-adv-x="567" />
<glyph horiz-adv-x="0" />
<glyph unicode="&#xd;" horiz-adv-x="567" />
<glyph unicode=" "  horiz-adv-x="567" />
<glyph unicode="&#x09;" horiz-adv-x="567" />
<glyph unicode="&#xa0;" horiz-adv-x="567" />
<glyph unicode="!" horiz-adv-x="604" d="M227 0v258h152v-258h-152zM227 403v1110h152v-1110h-152z" />
<glyph unicode="&#x22;" horiz-adv-x="632" d="M152 1051v462h102v-462h-102zM383 1051v462h102v-462h-102z" />
<glyph unicode="#" d="M12 524l29 99h307l78 268h-305l26 98h310l153 524h86l-151 -524h182l156 524h84l-154 -524h307l-26 -98h-310l-77 -268h307l-31 -99h-309l-152 -524h-88l154 524h-185l-153 -524h-86l153 524h-305zM434 623h187l75 268h-184z" />
<glyph unicode="$" d="M154 467h141q0 -131 73.5 -207t198.5 -76q117 0 189.5 77t72.5 198q0 113 -59 174t-233.5 115.5t-253 141.5t-78.5 240q0 139 80 235.5t217 125.5v168h135v-168q158 -27 245 -122t87 -249h-144q0 113 -64.5 177.5t-170.5 64.5t-170 -65.5t-64 -178.5q0 -96 51.5 -145 t227.5 -104.5t261 -149.5t85 -256t-96.5 -275.5t-247.5 -128.5v-174h-135v174q-348 63 -348 408z" />
<glyph unicode="%" horiz-adv-x="1587" d="M27 1174q0 147 104 253.5t254 106.5t255 -105.5t105 -254.5q0 -150 -105 -255.5t-255 -105.5q-147 0 -252.5 105.5t-105.5 255.5zM162 1174q0 -92 64.5 -159t158.5 -67q92 0 156.5 66.5t64.5 159.5q0 94 -63.5 159.5t-157.5 65.5q-92 0 -157.5 -65.5t-65.5 -159.5zM373 0 l680 1513h151l-684 -1513h-147zM821 334q0 147 106 252.5t253 105.5t253.5 -104.5t106.5 -253.5q0 -150 -105.5 -255.5t-254.5 -105.5q-147 0 -253 105.5t-106 255.5zM958 334q0 -92 64.5 -158.5t157.5 -66.5q90 0 155.5 65.5t65.5 157.5q0 94 -63.5 159.5t-157.5 65.5 q-90 0 -156 -65.5t-66 -157.5z" />
<glyph unicode="&#x26;" horiz-adv-x="1550" d="M117 436q0 147 77.5 247.5t270.5 203.5q-94 98 -131 168.5t-37 148.5q0 141 103.5 238.5t254.5 97.5q156 0 260.5 -98.5t104.5 -247.5q0 -113 -58.5 -187.5t-203.5 -148.5l-33 -16l287 -283l221 426h168l-279 -534l383 -373l-104 -105l-350 340q-90 -180 -198 -260 t-259 -80q-205 0 -341 132.5t-136 330.5zM266 420q0 -129 92.5 -219t225.5 -90q111 0 190.5 69.5t163.5 241.5l-365 356q-168 -80 -237.5 -160.5t-69.5 -197.5zM449 1208q0 -59 36.5 -116.5t128.5 -141.5q262 100 263 256q0 86 -61.5 141.5t-156.5 55.5q-90 0 -150 -56.5 t-60 -138.5z" />
<glyph unicode="'" horiz-adv-x="405" d="M152 1051v462h102v-462h-102z" />
<glyph unicode="(" horiz-adv-x="755" d="M117 633q0 299 159.5 546.5t409.5 333.5v-129q-188 -113 -303 -318.5t-115 -432.5q0 -233 110.5 -434t307.5 -322v-133q-246 88 -407.5 340t-161.5 549z" />
<glyph unicode=")" horiz-adv-x="755" d="M70 -125q188 111 302.5 317.5t114.5 434.5q0 231 -110.5 432t-306.5 321v133q246 -88 407.5 -339.5t161.5 -548.5q0 -299 -159.5 -547t-409.5 -334v131z" />
<glyph unicode="*" horiz-adv-x="870" d="M131 1196v102h215l-115 185l101 57l108 -184l107 184l96 -57l-117 -187h211v-100h-209l113 -182l-96 -56l-109 187l-108 -187l-99 58l117 180h-215z" />
<glyph unicode="+" horiz-adv-x="1241" d="M104 547v151h439v443h157v-443h437v-151h-437v-447h-157v447h-439z" />
<glyph unicode="," horiz-adv-x="567" d="M186 -137l181 395h151l-180 -395h-152z" />
<glyph unicode="-" horiz-adv-x="679" d="M63 477v129h555v-129h-555z" />
<glyph unicode="." horiz-adv-x="567" d="M207 0v258h151v-258h-151z" />
<glyph unicode="/" horiz-adv-x="894" d="M82 -262l588 1775h143l-594 -1775h-137z" />
<glyph unicode="0" d="M61 551v430q0 272 129 415.5t377 143.5q246 0 377 -143.5t131 -415.5v-430q0 -578 -495 -578q-519 0 -519 578zM211 575q0 -242 87 -353t275 -111q186 0 269.5 109t83.5 355v371q0 236 -86 346.5t-271 110.5q-182 0 -270 -110.5t-88 -346.5v-371z" />
<glyph unicode="1" d="M317 1376v137h408v-1513h-150v1376h-258z" />
<glyph unicode="2" d="M68 0v137l530 512l92 90q109 106 152 184t43 164q0 139 -92.5 227.5t-235.5 88.5q-156 0 -242 -98.5t-86 -280.5h-149q0 240 128 378t351 138q207 0 342 -129t135 -332q0 -121 -59 -223t-219 -254l-486 -465h756v-137h-960z" />
<glyph unicode="3" d="M68 473h149q0 -172 91 -267t245 -95q139 0 233.5 96t94.5 244q0 344 -432 344v135l34 -2l39 -2q119 0 188.5 63.5t69.5 175.5q0 104 -64.5 171t-164.5 67q-111 0 -172.5 -69.5t-61.5 -196.5h-149q0 184 105.5 293.5t277.5 109.5q168 0 274.5 -106.5t106.5 -276.5 q0 -182 -156 -291q256 -129 256 -409q0 -203 -138 -343.5t-335 -140.5q-217 0 -354 137.5t-137 362.5z" />
<glyph unicode="4" d="M25 276v138l737 1099h178v-1099h139v-138h-139v-276h-149v276h-766zM199 414h592v891z" />
<glyph unicode="5" d="M53 475h148q20 -164 120.5 -264t245.5 -100q154 0 258.5 112.5t104.5 280.5q0 166 -103.5 277.5t-259.5 111.5q-176 0 -313 -170l-117 45l135 745h682v-137h-561l-74 -418q129 72 261 72q211 0 356 -151.5t145 -374.5t-147.5 -377t-360.5 -154q-215 0 -351 132.5 t-169 369.5z" />
<glyph unicode="6" d="M51 500q0 113 35 202t145 254l375 557h174l-356 -526q45 20 88 31.5t88 11.5q203 0 343 -150.5t140 -369.5q0 -233 -143 -385t-367 -152q-225 0 -373.5 150.5t-148.5 376.5zM203 500q0 -166 105.5 -277.5t262.5 -111.5q158 0 259.5 109.5t101.5 283.5q0 170 -101.5 279.5 t-261.5 109.5q-158 0 -262 -110.5t-104 -282.5z" />
<glyph unicode="7" d="M131 1376v137h873v-137l-619 -1376h-160l623 1376h-717z" />
<glyph unicode="8" d="M86 440q0 137 65.5 242t190.5 164q-92 55 -134 126.5t-42 176.5q0 168 115.5 279.5t287.5 111.5q176 0 288 -109.5t112 -281.5q0 -219 -181 -303q260 -115 261 -400q0 -207 -133.5 -340t-342.5 -133t-348 133.5t-139 333.5zM238 436q0 -141 94 -233t239 -92 q143 0 234.5 93t91.5 238q0 143 -93.5 234.5t-236.5 91.5q-145 0 -237 -92t-92 -240zM317 1157q0 -104 74 -176t182 -72q106 0 175 71t69 177q0 111 -69.5 178.5t-180.5 67.5t-180.5 -67.5t-69.5 -178.5z" />
<glyph unicode="9" d="M51 1004q0 233 143.5 384.5t366.5 151.5q225 0 373.5 -150.5t148.5 -375.5q0 -113 -34.5 -202t-145.5 -255l-375 -557h-174l357 526q-45 -20 -88 -31.5t-88 -11.5q-203 0 -343.5 150.5t-140.5 370.5zM203 1010q0 -170 101.5 -279.5t260.5 -109.5q158 0 262.5 110.5 t104.5 282.5q0 166 -105.5 277.5t-263.5 111.5t-259 -109.5t-101 -283.5z" />
<glyph unicode=":" horiz-adv-x="567" d="M207 0v258h151v-258h-151zM207 780v258h151v-258h-151z" />
<glyph unicode=";" horiz-adv-x="567" d="M84 -137l180 395h152l-180 -395h-152zM256 780v258h152v-258h-152z" />
<glyph unicode="&#x3c;" horiz-adv-x="1241" d="M100 549v133l1043 475v-160l-821 -383l821 -378v-160z" />
<glyph unicode="=" horiz-adv-x="1241" d="M104 336v151h1033v-151h-1033zM104 741v152h1033v-152h-1033z" />
<glyph unicode="&#x3e;" horiz-adv-x="1241" d="M98 76v160l824 382l-824 379v160l1043 -473v-133z" />
<glyph unicode="?" horiz-adv-x="1210" d="M133 1040q0 233 129 366.5t350 133.5q201 0 332 -125t131 -319q0 -100 -41 -177t-155.5 -181.5t-155.5 -172t-41 -170.5h-143v13v8q0 109 46 195.5t158.5 193t146.5 163t34 132.5q0 131 -88 217t-224 86q-156 0 -246 -93.5t-90 -269.5h-143zM535 0v258h151v-258h-151z " />
<glyph unicode="@" horiz-adv-x="1775" d="M145 752q0 330 227.5 559t553.5 229q299 0 502.5 -187.5t203.5 -465.5q0 -233 -145.5 -417.5t-331.5 -184.5q-135 0 -180 116q-106 -106 -244 -106q-127 0 -204.5 84t-77.5 223q0 231 155.5 421.5t343.5 190.5q174 0 236 -141l35 103h124l-190 -570l-25 -76 q-16 -49 -16 -81q0 -57 68 -58q125 0 237.5 160t112.5 338q0 233 -173 390t-431 157q-276 0 -475 -201t-199 -481q0 -281 196.5 -479.5t479.5 -198.5t479 207l82 -68q-96 -113 -246.5 -177.5t-318.5 -64.5q-328 0 -553.5 225.5t-225.5 553.5zM596 606q0 -90 43 -141t121 -51 q121 0 233.5 175t112.5 361q0 68 -43 111t-109 43q-133 0 -245.5 -155.5t-112.5 -342.5z" />
<glyph unicode="A" horiz-adv-x="1515" d="M23 0l649 1513h170l651 -1513h-166l-219 510h-705l-221 -510h-159zM461 647h588l-291 694z" />
<glyph unicode="B" horiz-adv-x="1175" d="M156 0v1513h354q266 0 392 -95t126 -298q0 -219 -168 -313q131 -55 192.5 -144.5t61.5 -228.5q0 -227 -138 -330.5t-446 -103.5h-374zM307 137h207q244 0 345.5 66.5t101.5 224.5q0 170 -100.5 233.5t-373.5 63.5h-180v-588zM307 862h185q211 0 296.5 57.5t85.5 198.5 q0 143 -84.5 200.5t-300.5 57.5h-182v-514z" />
<glyph unicode="C" horiz-adv-x="1665" d="M90 752q0 338 223.5 563t560.5 225q233 0 421 -112.5t276 -307.5h-170q-180 281 -520 281q-272 0 -454.5 -184.5t-182.5 -458.5q0 -268 186 -456.5t453 -188.5q166 0 286.5 65t239.5 219h168q-229 -424 -692 -424q-340 0 -567.5 223.5t-227.5 555.5z" />
<glyph unicode="D" horiz-adv-x="1523" d="M156 0v1513h356q922 0 922 -761q0 -358 -227.5 -555t-643.5 -197h-407zM307 137h211q762 0 762 621q0 618 -762 618h-211v-1239z" />
<glyph unicode="E" horiz-adv-x="1097" d="M156 0v1513h827v-137h-676v-542h654v-138h-654v-559h676v-137h-827z" />
<glyph unicode="F" horiz-adv-x="993" d="M156 0v1513h768v-137h-617v-547h594v-137h-594v-692h-151z" />
<glyph unicode="G" horiz-adv-x="1785" d="M90 760q0 330 231.5 555t571.5 225q250 0 445.5 -116.5t271.5 -313.5h-170q-78 139 -218.5 215t-316.5 76q-283 0 -472 -185.5t-189 -459.5q0 -270 192.5 -456.5t470.5 -186.5q217 0 391.5 127t221.5 321h-846v137h1028q0 -303 -233.5 -514t-555.5 -211 q-350 0 -586.5 226.5t-236.5 560.5z" />
<glyph unicode="H" horiz-adv-x="1398" d="M156 0v1513h151v-665h785v665h151v-1513h-151v711h-785v-711h-151z" />
<glyph unicode="I" horiz-adv-x="462" d="M156 0v1513h151v-1513h-151z" />
<glyph unicode="J" horiz-adv-x="987" d="M23 358h149q0 -115 70.5 -181t185.5 -66q252 0 252 362v1040h151v-1040q0 -244 -102 -373t-301 -129q-182 0 -293.5 103.5t-111.5 283.5z" />
<glyph unicode="K" horiz-adv-x="1210" d="M156 0v1513h151v-870l701 870h190l-598 -737l598 -776h-190l-504 655l-197 -241v-414h-151z" />
<glyph unicode="L" horiz-adv-x="946" d="M156 0v1513h151v-1376h627v-137h-778z" />
<glyph unicode="M" horiz-adv-x="1882" d="M156 0v1513h235l551 -1288l549 1288h235v-1513h-151v1348l-569 -1348h-132l-567 1348v-1348h-151z" />
<glyph unicode="N" horiz-adv-x="1515" d="M156 0v1513h204l848 -1255v1255h152v-1513h-152l-901 1331v-1331h-151z" />
<glyph unicode="O" horiz-adv-x="1779" d="M90 754q0 324 235.5 555t565.5 231t564.5 -230.5t234.5 -553.5q0 -324 -233.5 -553.5t-565.5 -229.5q-330 0 -565.5 229.5t-235.5 551.5zM244 750q0 -256 192.5 -446.5t454.5 -190.5q264 0 454.5 188t190.5 453q0 268 -189.5 457.5t-455.5 189.5q-268 0 -457.5 -191.5 t-189.5 -459.5z" />
<glyph unicode="P" horiz-adv-x="1212" d="M156 0v1513h417q305 0 444.5 -108.5t139.5 -347.5q0 -231 -133 -338t-426 -107h-291v-612h-151zM307 750h281q227 0 321.5 70.5t94.5 240.5q0 180 -102.5 247.5t-379.5 67.5h-215v-626z" />
<glyph unicode="Q" horiz-adv-x="1783" d="M90 756q0 338 233.5 561t585.5 223q350 0 579.5 -221t229.5 -559q0 -356 -252 -567q106 -78 199 -78h29v-142q-106 0 -175 27t-157 104q-197 -131 -455 -131q-342 0 -579.5 227.5t-237.5 555.5zM244 743v-6q0 -66 22 -166q160 53 324 54q217 0 384 -72t384 -262 q207 201 207 469q0 272 -188.5 456.5t-471.5 184.5q-281 0 -471 -188.5t-190 -469.5zM330 442q80 -150 237.5 -239.5t341.5 -89.5q94 0 175 22.5t155 71.5q-166 147 -322.5 212.5t-349.5 65.5q-76 0 -123.5 -8t-113.5 -35z" />
<glyph unicode="R" horiz-adv-x="1243" d="M156 0v1513h374q336 0 494 -116.5t158 -368.5q0 -205 -113 -322.5t-334 -140.5l424 -565h-188l-510 686h26h9h8q287 0 405.5 76t118.5 262q0 188 -117.5 270t-390.5 82h-213v-1376h-151z" />
<glyph unicode="S" horiz-adv-x="1019" d="M45 424h162q16 -147 98 -229t217 -82q131 0 215 84t84 217q0 123 -70.5 188.5t-279.5 131t-293 152.5t-84 247q0 178 119 292.5t301 114.5q186 0 305 -112.5t119 -297.5h-158q0 121 -76.5 196t-193.5 75q-115 0 -188.5 -74t-73.5 -190q0 -109 58.5 -163t269 -117.5 t305 -160t94.5 -274.5q0 -195 -129 -322t-328 -127q-207 0 -340 124t-133 327z" />
<glyph unicode="T" horiz-adv-x="872" d="M14 1376v137h844v-137h-346v-1376h-152v1376h-346z" />
<glyph unicode="U" horiz-adv-x="1341" d="M156 569v944h151v-944q0 -456 361 -456h2q365 0 364 456v944h152v-944q0 -291 -132 -443.5t-384 -152.5t-383 151.5t-131 444.5z" />
<glyph unicode="V" horiz-adv-x="1437" d="M20 1513h166l533 -1325l534 1325h164l-626 -1513h-148z" />
<glyph unicode="W" horiz-adv-x="1966" d="M20 1513h156l373 -1316l362 1316h144l362 -1316l373 1316h156l-435 -1513h-194l-336 1241l-332 -1241h-196z" />
<glyph unicode="X" horiz-adv-x="1247" d="M16 0l514 774l-485 739h178l402 -606l399 606h176l-485 -739l516 -774h-178l-428 647l-430 -647h-179z" />
<glyph unicode="Y" horiz-adv-x="1212" d="M4 1513h168l430 -847l440 847h166l-528 -1007v-506h-152v506z" />
<glyph unicode="Z" horiz-adv-x="983" d="M35 0v137l743 1239h-721v137h891v-137l-741 -1239h764v-137h-936z" />
<glyph unicode="[" horiz-adv-x="718" d="M229 336v610q0 219 106.5 366.5t305.5 200.5v-153q-152 -66 -210 -163t-58 -279v-556q0 -197 57 -296.5t211 -167.5v-154q-412 121 -412 592z" />
<glyph unicode="\" horiz-adv-x="1239" d="M172 1513h143l635 -1513h-143z" />
<glyph unicode="]" horiz-adv-x="718" d="M78 -102q150 68 209 165t59 277v557q0 197 -57 296t-211 167v153q412 -117 411 -591v-609q0 -221 -106.5 -368.5t-304.5 -200.5v154z" />
<glyph unicode="^" horiz-adv-x="1241" d="M43 369l498 1144h174l495 -1144h-166l-415 983l-420 -983h-166z" />
<glyph unicode="_" horiz-adv-x="1024" d="M0 -119h1024v-125h-1024v125z" />
<glyph unicode="`" horiz-adv-x="774" d="M152 1473l65 122l406 -221l-68 -119z" />
<glyph unicode="a" horiz-adv-x="1398" d="M86 557q0 252 169 421t421 169q145 0 251.5 -53.5t190.5 -171.5v198h152v-1120h-152v197q-90 -123 -187 -173.5t-243 -50.5q-258 0 -430 166t-172 418zM240 561q0 -188 130 -318t316 -130q184 0 308 130t124 322q0 188 -125 315.5t-313 127.5q-186 0 -313 -129t-127 -318 z" />
<glyph unicode="b" horiz-adv-x="1396" d="M129 0v1513h152v-585q150 219 440 219q250 0 420 -168t170 -418q0 -254 -169 -421t-423 -167q-137 0 -253 57.5t-185 162.5v-193h-152zM270 557q0 -184 130 -314t315 -130q188 0 315 129t127 323q0 190 -126 316.5t-314 126.5q-193 0 -320 -127t-127 -324z" />
<glyph unicode="c" horiz-adv-x="1325" d="M86 561q0 246 174 416t426 170q190 0 340 -98.5t217 -268.5h-170q-133 227 -389 228q-188 0 -316 -130t-128 -319q0 -188 131 -317t319 -129q121 0 208 49t175 168h172q-188 -356 -549 -357q-260 0 -435 169t-175 419z" />
<glyph unicode="d" horiz-adv-x="1402" d="M86 557q0 252 171 421t425 169q270 0 440 -205v571h152v-1513h-152v203q-86 -121 -186 -175.5t-240 -54.5q-260 0 -435 167t-175 417zM240 561q0 -188 130 -318t322 -130q180 0 308 132t128 318q0 184 -132 314.5t-318 130.5q-184 0 -311 -129t-127 -318z" />
<glyph unicode="e" horiz-adv-x="1331" d="M86 565q0 246 168 414t412 168q266 0 425.5 -173t159.5 -464h-1013q0 -164 131 -280.5t305 -116.5q129 0 236.5 69.5t154.5 186.5h158q-61 -178 -211 -287t-334 -109q-250 0 -421 171t-171 421zM242 647h858q-39 168 -155 264.5t-279 96.5q-160 0 -276.5 -98.5 t-147.5 -262.5z" />
<glyph unicode="f" horiz-adv-x="643" d="M33 983v137h174l2 29q0 178 105.5 271t297.5 93h25v-137h-14h-11q-137 0 -195.5 -58t-58.5 -198h279v-137h-279v-983h-151v983h-174z" />
<glyph unicode="g" horiz-adv-x="1378" d="M86 555q0 256 162 424t411 168q272 0 439 -225v198h151v-919q0 -326 -137 -483.5t-422 -157.5q-211 0 -356.5 104.5t-206.5 300.5h147q84 -147 175.5 -206.5t236.5 -59.5q412 0 412 453v75q-129 -254 -428 -254q-248 0 -416 168t-168 414zM240 569q0 -195 122.5 -325.5 t307.5 -130.5q182 0 305 131t123 329q0 188 -125 311.5t-318 123.5q-178 0 -296.5 -125t-118.5 -314z" />
<glyph unicode="h" horiz-adv-x="1249" d="M129 0v1513h152v-538q119 172 354 172q236 0 360.5 -139.5t124.5 -405.5v-602h-151v602q0 197 -88 301.5t-258 104.5q-164 0 -253 -101.5t-89 -292.5v-614h-152z" />
<glyph unicode="i" horiz-adv-x="409" d="M129 0v1120h152v-1120h-152zM129 1255v258h152v-258h-152z" />
<glyph unicode="j" horiz-adv-x="415" d="M-92 -248q127 0 177 75t50 251v1042h152v-1042q0 -240 -91.5 -355.5t-287.5 -115.5v145zM135 1255v258h152v-258h-152z" />
<glyph unicode="k" horiz-adv-x="1028" d="M129 0v1513h152v-1073l522 680h186l-436 -563l465 -557h-189l-372 449l-176 -218v-231h-152z" />
<glyph unicode="l" horiz-adv-x="409" d="M129 0v1513h152v-1513h-152z" />
<glyph unicode="m" horiz-adv-x="1921" d="M129 0v1120h152v-129q66 82 138.5 119t176.5 37q242 0 367 -215q135 215 387 215q211 0 326.5 -126t115.5 -355v-666h-152v649q0 358 -297 359q-147 0 -227 -92.5t-80 -266.5v-649h-151v653q0 170 -78 262.5t-225 92.5q-143 0 -222 -93.5t-79 -261.5v-653h-152z" />
<glyph unicode="n" horiz-adv-x="1249" d="M129 0v1120h152v-145q141 172 360 172q236 0 357.5 -142.5t121.5 -416.5v-588h-151v588q0 420 -346 420q-168 0 -255 -99.5t-87 -292.5v-616h-152z" />
<glyph unicode="o" horiz-adv-x="1341" d="M86 557q0 254 166 422t420 168t418.5 -167t164.5 -423q0 -252 -161.5 -418t-409.5 -166q-258 0 -428 166t-170 418zM240 553q0 -190 124.5 -315t315.5 -125q186 0 304 123.5t118 318.5q0 197 -122 325t-306 128q-190 0 -312 -128t-122 -327z" />
<glyph unicode="p" horiz-adv-x="1396" d="M129 -393v1513h152v-192q143 219 440 219q250 0 420 -168t170 -420q0 -248 -171 -417t-423 -169q-287 0 -436 220v-586h-152zM270 563q0 -193 127 -321.5t318 -128.5q188 0 315 127t127 317q0 195 -126 323t-316 128q-188 0 -316.5 -128t-128.5 -317z" />
<glyph unicode="q" horiz-adv-x="1396" d="M86 559q0 250 169 419t421 169q297 0 440 -219v192h152v-1513h-152v586q-74 -109 -184.5 -164.5t-251.5 -55.5q-252 0 -423 169t-171 417zM240 557q0 -190 127 -317t315 -127q190 0 317 129t127 321q0 188 -128 316.5t-316 128.5q-190 0 -316 -128t-126 -323z" />
<glyph unicode="r" horiz-adv-x="616" d="M129 0v1120h152v-159q51 100 121.5 143t195.5 43v-150q-317 -31 -317 -344v-653h-152z" />
<glyph unicode="s" horiz-adv-x="794" d="M37 330h149q0 -102 57.5 -159.5t153.5 -57.5q82 0 135.5 55t53.5 139q0 78 -41 119t-198 104.5t-213 124t-56 176.5q0 137 89 226.5t228 89.5q137 0 226.5 -85t89.5 -218h-154q0 78 -45 121t-119 43q-68 0 -115 -47.5t-47 -114.5q0 -66 37 -101.5t158 -87.5l119 -49 q194 -82 194 -284q0 -156 -95 -253.5t-247 -97.5q-164 0 -262 96.5t-98 260.5z" />
<glyph unicode="t" horiz-adv-x="694" d="M25 983v137h241v393h152v-393h252v-137h-252v-983h-152v983h-241z" />
<glyph unicode="u" horiz-adv-x="1245" d="M129 516v604h152v-604q0 -403 333 -403q172 0 261.5 109.5t89.5 322.5v575h151v-1120h-151v174q-55 -102 -143.5 -151.5t-217.5 -49.5q-233 0 -354 137.5t-121 405.5z" />
<glyph unicode="v" d="M16 1120h154l393 -942l402 942h153l-471 -1120h-160z" />
<glyph unicode="w" horiz-adv-x="1701" d="M14 1120h152l356 -938l264 801h125l265 -801l364 938h148l-435 -1120h-161l-244 743l-242 -743h-164z" />
<glyph unicode="x" horiz-adv-x="983" d="M16 0l390 571l-390 549h172l304 -432l301 432h174l-392 -549l392 -571h-174l-301 449l-304 -449h-172z" />
<glyph unicode="y" horiz-adv-x="1097" d="M18 1120h166l355 -893l379 893h161l-647 -1513h-162l183 430z" />
<glyph unicode="z" horiz-adv-x="870" d="M20 0v137l619 846h-598v137h770v-129l-612 -854h651v-137h-830z" />
<glyph unicode="{" horiz-adv-x="718" d="M76 557v141q100 16 131 51t31 132v348q0 164 66.5 224t250.5 60v-137l-23 -2q-84 -8 -110.5 -34.5t-26.5 -108.5v-348q0 -106 -31.5 -158.5t-113.5 -83.5l-37 -14l37 -13q84 -33 114.5 -84t30.5 -157v-348q0 -80 28 -108t109 -36l23 -2v-137q-186 0 -251.5 59.5 t-65.5 225.5v348q0 94 -31 129t-131 53z" />
<glyph unicode="|" horiz-adv-x="1376" d="M623 0v1513h131v-1513h-131z" />
<glyph unicode="}" horiz-adv-x="718" d="M78 -121l22 2q84 8 111 35t27 109v348q0 106 30.5 157.5t114.5 83.5l37 13l-37 14q-84 33 -114.5 84t-30.5 158v348q0 80 -28 107.5t-110 35.5l-22 2v137q186 0 251.5 -59t65.5 -225v-348q0 -94 30 -130t126 -53v-141q-94 -16 -125 -51t-31 -131v-348 q0 -166 -65.5 -225.5t-251.5 -59.5v137z" />
<glyph unicode="~" horiz-adv-x="1241" d="M104 526q72 131 139.5 188.5t151.5 57.5q68 0 160 -39l133 -55q63 -27 98 -37t62 -10q99 0 199 168l90 -97q-49 -102 -128 -165.5t-155 -63.5q-68 0 -195 53l-112 45q-63 27 -91 35t-57 8q-57 0 -98 -32.5t-96 -124.5l-15 -27z" />
<glyph unicode="&#xa1;" horiz-adv-x="604" d="M227 -393v1114h152v-1114h-152zM227 862v258h152v-258h-152z" />
<glyph unicode="&#xa2;" d="M92 782q0 193 121 324t317 151v191h136v-191q133 -20 233 -102t143 -207h-170q-96 172 -292 172q-145 0 -240.5 -95t-95.5 -241q0 -143 96 -241.5t238 -98.5q84 0 150.5 34t135.5 116h166q-98 -244 -364 -285v-182h-136v182q-186 0 -312 140.5t-126 332.5z" />
<glyph unicode="&#xa3;" d="M37 711v137h153q-25 61 -35 106t-10 95q0 215 136.5 353t345.5 138q207 0 346 -118.5t162 -313.5h-142q-31 139 -127 217t-237 78q-150 0 -241 -97.5t-91 -254.5q0 -59 10 -97.5t47 -105.5h582v-137h-440q147 -160 147 -334q0 -100 -59 -240h116q172 0 266.5 80t94.5 229 q0 25 -2 43.5t-10 59.5h147q16 -63 16 -113q0 -207 -133 -321.5t-374 -114.5h-584v137h285q86 96 86 238q0 92 -37 158.5t-140 158.5l-20 19h-258z" />
<glyph unicode="&#xa4;" d="M53 621q0 90 22.5 161.5t74.5 143.5l-91 86l113 110l88 -86q82 51 151.5 74t153.5 23q174 0 307 -95l89 86l110 -112l-84 -86q94 -141 94 -312q0 -186 -96 -301l86 -86l-110 -108l-84 86q-88 -57 -156 -80t-156 -23t-155.5 22.5t-151.5 80.5l-86 -86l-109 110l84 84 q-94 133 -94 308zM199 618q0 -160 106.5 -264t265.5 -104q158 0 261.5 105.5t103.5 265.5q0 162 -103.5 265t-265.5 103q-160 0 -264 -104.5t-104 -266.5z" />
<glyph unicode="&#xa5;" d="M0 1513h156l452 -843l443 843h155l-299 -565h211v-137h-284l-99 -188h369v-138h-422v-485h-150v485h-430v138h375l-100 188h-289v137h215z" />
<glyph unicode="&#xa6;" horiz-adv-x="1376" d="M606 0v604h160v-604h-160zM606 909v604h160v-604h-160z" />
<glyph unicode="&#xa7;" horiz-adv-x="1259" d="M178 694q0 186 176 312q-78 86 -78 200q0 145 100.5 239.5t252.5 94.5t256 -84t104 -215h-145q-35 162 -213 162q-96 0 -155.5 -53.5t-59.5 -139.5q0 -115 121 -176l323 -151q223 -106 223 -291q0 -176 -155 -293q98 -100 98 -223q0 -158 -109.5 -261.5t-275.5 -103.5 q-180 0 -302 118t-122 302h139q0 -125 81 -204t204 -79q104 0 175 64.5t71 159.5q0 61 -44 109t-149 100l-293 143q-125 61 -174 120.5t-49 149.5zM317 719q0 -96 111 -150l406 -196q111 80 110 200q0 118 -125 175l-385 182q-53 -37 -85 -93.5t-32 -117.5z" />
<glyph unicode="&#xa8;" horiz-adv-x="755" d="M152 1255v258h151v-258h-151zM453 1255v258h151v-258h-151z" />
<glyph unicode="&#xa9;" horiz-adv-x="1529" d="M-18 758q0 324 229 553t553 229t553 -229.5t229 -552.5q0 -326 -229.5 -555.5t-552.5 -229.5q-324 0 -553 229.5t-229 555.5zM96 756q0 -281 195.5 -478.5t472.5 -197.5q276 0 472 197.5t196 478.5t-194.5 479.5t-473.5 198.5q-274 0 -471 -199t-197 -479zM334 762 q0 188 131 321.5t319 133.5q131 0 233.5 -61.5t168.5 -178.5h-152q-104 125 -248 125q-137 0 -232 -99.5t-95 -240.5q0 -139 96 -241.5t229 -102.5q140 0 242 117h154q-61 -109 -166 -170.5t-232 -61.5q-182 0 -315 135t-133 324z" />
<glyph unicode="&#xaa;" horiz-adv-x="755" d="M63 668v104h631v-104h-631zM63 1231q0 129 90.5 219t221.5 90q63 0 121.5 -28.5t87.5 -75.5v92h98v-596h-98v92q-86 -106 -211 -106q-127 0 -218.5 93t-91.5 220zM172 1229q0 -84 61.5 -147.5t143.5 -63.5q80 0 140.5 62.5t60.5 146.5q0 86 -59.5 149.5t-141.5 63.5 t-143.5 -63.5t-61.5 -147.5z" />
<glyph unicode="&#xab;" horiz-adv-x="870" d="M82 614l231 408l121 -66l-192 -342l192 -344l-121 -67zM432 614l236 408l120 -66l-192 -342l192 -344l-120 -67z" />
<glyph unicode="&#xac;" horiz-adv-x="1241" d="M104 743v150h1033v-590h-148v440h-885z" />
<glyph unicode="&#xad;" horiz-adv-x="679" d="M63 477v129h555v-129h-555z" />
<glyph unicode="&#xae;" horiz-adv-x="1529" d="M-18 758q0 324 229 553t553 229t553 -229.5t229 -552.5q0 -326 -229.5 -555.5t-552.5 -229.5q-324 0 -553 229.5t-229 555.5zM96 756q0 -281 195.5 -478.5t472.5 -197.5q276 0 472 197.5t196 478.5t-194.5 479.5t-473.5 198.5q-274 0 -471 -199t-197 -479zM508 322v876 h270q152 0 234 -71.5t82 -208.5q0 -233 -256 -269l247 -327h-155l-297 413v-413h-125zM633 748h90q242 0 242 170q0 74 -52.5 117.5t-142.5 43.5h-137v-331z" />
<glyph unicode="&#xaf;" horiz-adv-x="993" d="M152 1255v138h690v-138h-690z" />
<glyph unicode="&#xb0;" horiz-adv-x="819" d="M102 1206q0 127 90.5 217t217.5 90t217 -90t90 -217t-90 -217t-217 -90t-217.5 90t-90.5 217zM184 1206q0 -94 65.5 -159.5t160.5 -65.5q92 0 158.5 66.5t66.5 158.5t-66.5 159t-160.5 67q-92 0 -158 -66t-66 -160z" />
<glyph unicode="&#xb1;" horiz-adv-x="1241" d="M78 70v147h1085v-147h-1085zM80 705v147h471v397h145v-397h467v-147h-467v-398h-145v398h-471z" />
<glyph unicode="&#xb2;" horiz-adv-x="679" d="M27 590v104l333 307l58 52q117 109 117 192q0 70 -55.5 121t-131.5 51q-190 0 -190 -223h-123q0 156 84 246t233 90q127 0 217 -84t90 -205q0 -76 -36.5 -136.5t-141.5 -154.5l-272 -248h444v-112h-626z" />
<glyph unicode="&#xb3;" horiz-adv-x="679" d="M27 899h125q0 -102 51 -157.5t137 -55.5q78 0 135 55.5t57 128.5q0 98 -63 143.5t-205 45.5v110l41 -2q80 0 123 33t43 92q0 53 -36 89t-93 36q-61 0 -94 -40.5t-33 -116.5h-125q0 123 69.5 196.5t184.5 73.5q106 0 179 -70.5t73 -173.5q0 -55 -16.5 -89t-67.5 -79 q145 -90 145 -244q0 -123 -93 -212t-222 -89q-141 0 -228 89.5t-87 236.5z" />
<glyph unicode="&#xb4;" horiz-adv-x="768" d="M152 1370l395 238l69 -119l-395 -234z" />
<glyph unicode="&#xb5;" horiz-adv-x="1245" d="M129 -451v1571h152v-575q0 -209 88 -320.5t254 -111.5t254 110.5t88 321.5v575h151v-1120h-151v174q-109 -201 -351 -201q-131 0 -207.5 41t-140.5 148q6 -47 10.5 -103.5t4.5 -119.5v-390h-152z" />
<glyph unicode="&#xb6;" horiz-adv-x="1155" d="M76 1124q0 186 119.5 287.5t336.5 101.5h474v-1785h-154v1648h-234v-1648h-153v999q-180 18 -284.5 124.5t-104.5 272.5z" />
<glyph unicode="&#xb7;" horiz-adv-x="567" d="M207 469v258h151v-258h-151z" />
<glyph unicode="&#xb8;" horiz-adv-x="663" d="M152 -281h90l4 -6q33 -61 88 -61q41 0 65.5 26.5t24.5 67.5q0 47 -25.5 77t-68.5 30q-47 0 -88 -50l-60 35l72 162h74l-39 -96q41 16 67 16q70 0 113 -45t43 -119q0 -86 -49 -139t-131 -53q-154 0 -180 155z" />
<glyph unicode="&#xb9;" horiz-adv-x="679" d="M182 1401v112h285v-923h-123v811h-162z" />
<glyph unicode="&#xba;" horiz-adv-x="755" d="M66 668v104h624v-104h-624zM66 1229q0 127 92 219t219 92q129 0 221 -90t92 -219q0 -127 -92 -219t-221 -92q-127 0 -219 90t-92 219zM174 1231q0 -88 59.5 -149.5t145.5 -61.5t144.5 60.5t58.5 150.5q0 86 -59.5 147.5t-143.5 61.5q-88 0 -146.5 -60.5t-58.5 -148.5z " />
<glyph unicode="&#xbb;" horiz-adv-x="870" d="M82 270l192 344l-192 342l121 66l235 -408l-235 -411zM436 270l193 344l-193 342l121 66l231 -408l-231 -411z" />
<glyph unicode="&#xbc;" horiz-adv-x="1701" d="M182 1401v112h285v-923h-123v811h-162zM469 0l698 1513h113l-700 -1513h-111zM973 162v102l463 660h133v-650h86v-112h-86v-162h-123v162h-473zM1126 274h320v461z" />
<glyph unicode="&#xbd;" horiz-adv-x="1701" d="M182 1401v112h285v-923h-123v811h-162zM469 0l698 1513h113l-700 -1513h-111zM1053 0v104l333 308l58 51q63 57 90 102t27 90q0 70 -55.5 121t-131.5 51q-190 0 -190 -223h-123q0 156 84 246t233 90q127 0 217.5 -84t90.5 -205q0 -76 -37 -136t-142 -155l-272 -247h444 v-113h-626z" />
<glyph unicode="&#xbe;" horiz-adv-x="1701" d="M27 899h125q0 -102 51 -157.5t137 -55.5q78 0 135 55.5t57 128.5q0 98 -63 143.5t-205 45.5v110l41 -2q80 0 123 33t43 92q0 53 -36 89t-93 36q-61 0 -94 -40.5t-33 -116.5h-125q0 123 69.5 196.5t184.5 73.5q106 0 179 -70.5t73 -173.5q0 -55 -16.5 -89t-67.5 -79 q145 -90 145 -244q0 -123 -93 -212t-222 -89q-141 0 -228 89.5t-87 236.5zM469 0l698 1513h113l-700 -1513h-111zM973 162v102l463 660h133v-650h86v-112h-86v-162h-123v162h-473zM1126 274h320v461z" />
<glyph unicode="&#xbf;" horiz-adv-x="1210" d="M135 25q0 100 41 177t154.5 180t156.5 172t43 171h144v-20q0 -113 -45 -197t-160 -191.5t-148.5 -164t-33.5 -132.5q0 -131 88 -217t223 -86q156 0 246 93.5t90 269.5h143q0 -233 -129 -366.5t-350 -133.5q-201 0 -332 125t-131 320zM524 862v258h152v-258h-152z" />
<glyph unicode="&#xc0;" horiz-adv-x="1515" d="M23 0l649 1513h170l651 -1513h-166l-219 510h-705l-221 -510h-159zM461 647h588l-291 694zM522 1866l66 123l405 -222l-67 -118z" />
<glyph unicode="&#xc1;" horiz-adv-x="1515" d="M23 0l649 1513h170l651 -1513h-166l-219 510h-705l-221 -510h-159zM461 647h588l-291 694zM526 1763l396 238l69 -119l-395 -233z" />
<glyph unicode="&#xc2;" horiz-adv-x="1515" d="M23 0l649 1513h170l651 -1513h-166l-219 510h-705l-221 -510h-159zM395 1649l297 258h135l293 -258h-182l-176 151l-180 -151h-187zM461 647h588l-291 694z" />
<glyph unicode="&#xc3;" horiz-adv-x="1515" d="M23 0l649 1513h170l651 -1513h-166l-219 510h-705l-221 -510h-159zM461 647h588l-291 694zM461 1769q82 88 180 89q57 0 130 -41t110 -41q35 0 96 39l14 10l64 -99q-94 -78 -174 -77q-57 0 -131 41l-21 12q-51 27 -88 27q-31 0 -45 -6.5t-59 -39.5l-15 -10z" />
<glyph unicode="&#xc4;" horiz-adv-x="1515" d="M23 0l649 1513h170l651 -1513h-166l-219 510h-705l-221 -510h-159zM461 647h588l-291 694zM532 1649v258h152v-258h-152zM834 1649v258h151v-258h-151z" />
<glyph unicode="&#xc5;" horiz-adv-x="1515" d="M23 0l649 1513h170l651 -1513h-166l-219 510h-705l-221 -510h-159zM461 647h588l-291 694zM569 1837q0 80 54.5 134t132.5 54q80 0 135 -55t55 -133t-55 -133t-133 -55t-133.5 55t-55.5 133zM647 1835q0 -45 32 -77t79 -32t78.5 32t31.5 77t-32.5 78t-79.5 33 q-45 0 -77 -32t-32 -79z" />
<glyph unicode="&#xc6;" horiz-adv-x="2031" d="M23 0l1046 1513h848v-137h-653v-542h630v-138h-630v-559h653v-137h-805v512h-555l-354 -512h-180zM653 649h459v670z" />
<glyph unicode="&#xc7;" horiz-adv-x="1665" d="M90 752q0 338 223.5 563t560.5 225q233 0 421 -112.5t276 -307.5h-170q-180 281 -520 281q-272 0 -454.5 -184.5t-182.5 -458.5q0 -268 186 -456.5t453 -188.5q166 0 286.5 65.5t239.5 218.5h168q-115 -215 -280.5 -319.5t-403.5 -104.5l-49 -112q41 14 69 14 q72 0 115 -47t43 -125q0 -86 -52 -140.5t-136 -54.5q-150 0 -191 152l96 14q23 -70 93 -69q92 0 92 94q0 43 -25.5 70.5t-70.5 27.5q-49 0 -89 -45l-61 37l84 186q-319 29 -520 245t-201 532z" />
<glyph unicode="&#xc8;" horiz-adv-x="1097" d="M156 0v1513h827v-137h-676v-542h654v-138h-654v-559h676v-137h-827zM334 1866l65 123l406 -222l-68 -118z" />
<glyph unicode="&#xc9;" horiz-adv-x="1097" d="M156 0v1513h827v-137h-676v-542h654v-138h-654v-559h676v-137h-827zM338 1763l395 238l70 -119l-395 -233z" />
<glyph unicode="&#xca;" horiz-adv-x="1097" d="M156 0v1513h827v-137h-676v-542h654v-138h-654v-559h676v-137h-827zM207 1649l297 258h135l293 -258h-182l-177 151l-180 -151h-186z" />
<glyph unicode="&#xcb;" horiz-adv-x="1097" d="M156 0v1513h827v-137h-676v-542h654v-138h-654v-559h676v-137h-827zM344 1649v258h152v-258h-152zM645 1649v258h152v-258h-152z" />
<glyph unicode="&#xcc;" horiz-adv-x="462" d="M-4 1866l65 123l406 -222l-68 -118zM156 0v1513h151v-1513h-151z" />
<glyph unicode="&#xcd;" horiz-adv-x="462" d="M0 1763l395 238l70 -119l-395 -233zM156 0v1513h151v-1513h-151z" />
<glyph unicode="&#xce;" horiz-adv-x="462" d="M-131 1649l297 258h135l293 -258h-182l-176 151l-181 -151h-186zM156 0v1513h151v-1513h-151z" />
<glyph unicode="&#xcf;" horiz-adv-x="462" d="M6 1649v258h152v-258h-152zM156 0v1513h151v-1513h-151zM307 1649v258h152v-258h-152z" />
<glyph unicode="&#xd0;" horiz-adv-x="1617" d="M82 717v137h147v659h357q922 0 921 -761q0 -358 -227 -555t-643 -197h-408v717h-147zM381 137h211q762 0 762 623q0 616 -762 616h-211v-522h420v-137h-420v-580z" />
<glyph unicode="&#xd1;" horiz-adv-x="1515" d="M156 0v1513h204l848 -1255v1255h152v-1513h-152l-901 1331v-1331h-151zM461 1769q82 88 180 89q57 0 130 -41t110 -41q35 0 96 39l14 10l64 -99q-94 -78 -174 -77q-57 0 -131 41l-21 12q-51 27 -88 27q-31 0 -45 -6.5t-59 -39.5l-15 -10z" />
<glyph unicode="&#xd2;" horiz-adv-x="1779" d="M90 754q0 324 235.5 555t565.5 231t564.5 -230.5t234.5 -553.5q0 -324 -233.5 -553.5t-565.5 -229.5q-330 0 -565.5 229.5t-235.5 551.5zM244 750q0 -256 192.5 -446.5t454.5 -190.5q264 0 454.5 188t190.5 453q0 268 -189.5 457.5t-455.5 189.5q-268 0 -457.5 -191.5 t-189.5 -459.5zM653 1866l66 123l405 -222l-67 -118z" />
<glyph unicode="&#xd3;" horiz-adv-x="1779" d="M90 754q0 324 235.5 555t565.5 231t564.5 -230.5t234.5 -553.5q0 -324 -233.5 -553.5t-565.5 -229.5q-330 0 -565.5 229.5t-235.5 551.5zM244 750q0 -256 192.5 -446.5t454.5 -190.5q264 0 454.5 188t190.5 453q0 268 -189.5 457.5t-455.5 189.5q-268 0 -457.5 -191.5 t-189.5 -459.5zM657 1763l396 238l69 -119l-395 -233z" />
<glyph unicode="&#xd4;" horiz-adv-x="1779" d="M90 754q0 324 235.5 555t565.5 231t564.5 -230.5t234.5 -553.5q0 -324 -233.5 -553.5t-565.5 -229.5q-330 0 -565.5 229.5t-235.5 551.5zM244 750q0 -256 192.5 -446.5t454.5 -190.5q264 0 454.5 188t190.5 453q0 268 -189.5 457.5t-455.5 189.5q-268 0 -457.5 -191.5 t-189.5 -459.5zM526 1649l297 258h135l293 -258h-182l-176 151l-180 -151h-187z" />
<glyph unicode="&#xd5;" horiz-adv-x="1779" d="M90 754q0 324 235.5 555t565.5 231t564.5 -230.5t234.5 -553.5q0 -324 -233.5 -553.5t-565.5 -229.5q-330 0 -565.5 229.5t-235.5 551.5zM244 750q0 -256 192.5 -446.5t454.5 -190.5q264 0 454.5 188t190.5 453q0 268 -189.5 457.5t-455.5 189.5q-268 0 -457.5 -191.5 t-189.5 -459.5zM592 1769q82 88 180 89q57 0 130 -41t110 -41q35 0 96 39l14 10l64 -99q-94 -78 -174 -77q-57 0 -131 41l-21 12q-51 27 -88 27q-31 0 -45 -6.5t-59 -39.5l-15 -10z" />
<glyph unicode="&#xd6;" horiz-adv-x="1779" d="M90 754q0 324 235.5 555t565.5 231t564.5 -230.5t234.5 -553.5q0 -324 -233.5 -553.5t-565.5 -229.5q-330 0 -565.5 229.5t-235.5 551.5zM244 750q0 -256 192.5 -446.5t454.5 -190.5q264 0 454.5 188t190.5 453q0 268 -189.5 457.5t-455.5 189.5q-268 0 -457.5 -191.5 t-189.5 -459.5zM664 1649v258h151v-258h-151zM965 1649v258h151v-258h-151z" />
<glyph unicode="&#xd7;" horiz-adv-x="1241" d="M184 283l332 329l-332 332l107 107l332 -332l329 332l107 -107l-332 -332l332 -329l-107 -107l-329 332l-332 -332z" />
<glyph unicode="&#xd8;" horiz-adv-x="1777" d="M90 758q0 328 229.5 555t563.5 227q117 0 230.5 -30.5t189.5 -84.5l192 256l111 -86l-189 -252q270 -227 271 -581q0 -330 -229.5 -559.5t-561.5 -229.5q-231 0 -420 113l-192 -256l-115 84l190 254q-270 225 -270 590zM244 750q0 -274 205 -467l770 1030 q-145 88 -338 88q-268 0 -452.5 -188.5t-184.5 -462.5zM561 199q164 -86 332 -86q268 0 454.5 186t186.5 457q0 276 -203 473z" />
<glyph unicode="&#xd9;" horiz-adv-x="1341" d="M156 569v944h151v-944q0 -457 363 -456q365 0 364 456v944h152v-944q0 -291 -132 -443.5t-384 -152.5t-383 151.5t-131 444.5zM434 1866l66 123l405 -222l-67 -118z" />
<glyph unicode="&#xda;" horiz-adv-x="1341" d="M156 569v944h151v-944q0 -457 363 -456q365 0 364 456v944h152v-944q0 -291 -132 -443.5t-384 -152.5t-383 151.5t-131 444.5zM438 1763l396 238l69 -119l-395 -233z" />
<glyph unicode="&#xdb;" horiz-adv-x="1341" d="M156 569v944h151v-944q0 -457 363 -456q365 0 364 456v944h152v-944q0 -291 -132 -443.5t-384 -152.5t-383 151.5t-131 444.5zM307 1649l297 258h135l293 -258h-182l-176 151l-180 -151h-187z" />
<glyph unicode="&#xdc;" horiz-adv-x="1341" d="M156 569v944h151v-944q0 -457 363 -456q365 0 364 456v944h152v-944q0 -291 -132 -443.5t-384 -152.5t-383 151.5t-131 444.5zM444 1649v258h152v-258h-152zM745 1649v258h152v-258h-152z" />
<glyph unicode="&#xdd;" horiz-adv-x="1212" d="M4 1513h168l430 -847l440 847h166l-528 -1007v-506h-152v506zM373 1763l395 238l70 -119l-394 -233z" />
<glyph unicode="&#xde;" horiz-adv-x="1212" d="M156 0v1513h137v-272h280q305 0 444.5 -108.5t139.5 -348.5q0 -231 -133 -337.5t-426 -106.5h-291v-340h-151zM307 477h281q227 0 321.5 70.5t94.5 240.5q0 180 -102.5 248t-379.5 68h-215v-627z" />
<glyph unicode="&#xdf;" d="M121 0v985q0 555 420 555q184 0 307 -121t123 -305q0 -111 -42 -187.5t-132 -129.5q276 -88 276 -389q0 -188 -118.5 -311.5t-301.5 -123.5q-266 0 -381 250v-223h-151zM272 416h105q0 -133 76.5 -218t195.5 -85q115 0 193 84t78 206q0 141 -97.5 220t-273.5 79l-57 -2 l-33 -2v138h20q158 0 248 75.5t90 210.5q0 119 -77.5 199t-196.5 80q-143 0 -207 -98.5t-64 -317.5v-569z" />
<glyph unicode="&#xe0;" horiz-adv-x="1398" d="M86 557q0 252 169 421t421 169q145 0 251.5 -53.5t190.5 -171.5v198h152v-1120h-152v197q-90 -123 -187 -173.5t-243 -50.5q-258 0 -430 166t-172 418zM240 561q0 -188 130 -318t316 -130q184 0 308 130t124 322q0 188 -125 315.5t-313 127.5q-186 0 -313 -129t-127 -318 zM442 1473l66 122l405 -221l-67 -119z" />
<glyph unicode="&#xe1;" horiz-adv-x="1398" d="M86 557q0 252 169 421t421 169q145 0 251.5 -53.5t190.5 -171.5v198h152v-1120h-152v197q-90 -123 -187 -173.5t-243 -50.5q-258 0 -430 166t-172 418zM240 561q0 -188 130 -318t316 -130q184 0 308 130t124 322q0 188 -125 315.5t-313 127.5q-186 0 -313 -129t-127 -318 zM446 1370l396 238l69 -119l-395 -234z" />
<glyph unicode="&#xe2;" horiz-adv-x="1398" d="M86 557q0 252 169 421t421 169q145 0 251.5 -53.5t190.5 -171.5v198h152v-1120h-152v197q-90 -123 -187 -173.5t-243 -50.5q-258 0 -430 166t-172 418zM240 561q0 -188 130 -318t316 -130q184 0 308 130t124 322q0 188 -125 315.5t-313 127.5q-186 0 -313 -129t-127 -318 zM315 1255l297 258h136l292 -258h-182l-176 152l-180 -152h-187z" />
<glyph unicode="&#xe3;" horiz-adv-x="1398" d="M86 557q0 252 169 421t421 169q145 0 251.5 -53.5t190.5 -171.5v198h152v-1120h-152v197q-90 -123 -187 -173.5t-243 -50.5q-258 0 -430 166t-172 418zM240 561q0 -188 130 -318t316 -130q184 0 308 130t124 322q0 188 -125 315.5t-313 127.5q-186 0 -313 -129t-127 -318 zM381 1376q82 88 180 88q57 0 130 -41t110 -41q35 0 96 39l14 11l64 -99q-94 -78 -174 -78q-57 0 -131 41l-21 13q-51 27 -88 26q-31 0 -45 -6t-59 -39l-15 -10z" />
<glyph unicode="&#xe4;" horiz-adv-x="1398" d="M86 557q0 252 169 421t421 169q145 0 251.5 -53.5t190.5 -171.5v198h152v-1120h-152v197q-90 -123 -187 -173.5t-243 -50.5q-258 0 -430 166t-172 418zM240 561q0 -188 130 -318t316 -130q184 0 308 130t124 322q0 188 -125 315.5t-313 127.5q-186 0 -313 -129t-127 -318 zM453 1255v258h151v-258h-151zM754 1255v258h151v-258h-151z" />
<glyph unicode="&#xe5;" horiz-adv-x="1398" d="M86 557q0 252 169 421t421 169q145 0 251.5 -53.5t190.5 -171.5v198h152v-1120h-152v197q-90 -123 -187 -173.5t-243 -50.5q-258 0 -430 166t-172 418zM240 561q0 -188 130 -318t316 -130q184 0 308 130t124 322q0 188 -125 315.5t-313 127.5q-186 0 -313 -129t-127 -318 zM489 1444q0 80 54.5 134t132.5 54q80 0 135 -55t55 -133t-55 -133.5t-133 -55.5t-133.5 55.5t-55.5 133.5zM567 1442q0 -45 32 -77t79 -32t78.5 32t31.5 77t-32.5 77.5t-79.5 32.5q-45 0 -77 -31.5t-32 -78.5z" />
<glyph unicode="&#xe6;" horiz-adv-x="2369" d="M86 557q0 254 168 422t422 168q285 0 446 -221v194h146v-194q176 221 442 221q264 0 422 -174t158 -467h-1014q14 -168 141 -280.5t301 -112.5q129 0 234.5 67.5t152.5 184.5h158q-57 -174 -208.5 -283t-336.5 -109q-266 0 -450 215v-188h-146v188q-94 -113 -198.5 -164 t-245.5 -51q-254 0 -423 167t-169 417zM242 561q0 -190 127 -319t313 -129q190 0 317 129t127 325q0 190 -124.5 315.5t-317.5 125.5q-190 0 -316 -128t-126 -319zM1282 643h860q-31 166 -148.5 265.5t-281.5 99.5q-168 0 -286.5 -100.5t-143.5 -264.5z" />
<glyph unicode="&#xe7;" horiz-adv-x="1325" d="M86 563q0 244 174 414t426 170q190 0 340 -98.5t217 -268.5h-170q-133 227 -389 228q-188 0 -316 -130t-128 -319q0 -188 131 -317t319 -129q121 0 208 49t175 168h172q-96 -184 -225.5 -270.5t-317.5 -86.5l-38 -92q41 14 65 15q72 0 115 -45.5t43 -118.5 q0 -84 -51.5 -137.5t-130.5 -53.5q-72 0 -119 41t-60 113h90l5 -6q18 -35 36.5 -47.5t49.5 -12.5q92 0 92 95q0 47 -27 75.5t-70 28.5q-45 0 -86 -49l-61 35l72 161q-238 27 -389.5 191t-151.5 397z" />
<glyph unicode="&#xe8;" horiz-adv-x="1331" d="M86 565q0 246 168 414t412 168q266 0 425.5 -173t159.5 -464h-1013q0 -164 131 -280.5t305 -116.5q129 0 236.5 69.5t154.5 186.5h158q-61 -178 -211 -287t-334 -109q-250 0 -421 171t-171 421zM242 647h858q-39 168 -155 264.5t-279 96.5q-160 0 -276.5 -98.5 t-147.5 -262.5zM432 1473l66 122l405 -221l-67 -119z" />
<glyph unicode="&#xe9;" horiz-adv-x="1331" d="M86 565q0 246 168 414t412 168q266 0 425.5 -173t159.5 -464h-1013q0 -164 131 -280.5t305 -116.5q129 0 236.5 69.5t154.5 186.5h158q-61 -178 -211 -287t-334 -109q-250 0 -421 171t-171 421zM242 647h858q-39 168 -155 264.5t-279 96.5q-160 0 -276.5 -98.5 t-147.5 -262.5zM436 1370l395 238l70 -119l-395 -234z" />
<glyph unicode="&#xea;" horiz-adv-x="1331" d="M86 565q0 246 168 414t412 168q266 0 425.5 -173t159.5 -464h-1013q0 -164 131 -280.5t305 -116.5q129 0 236.5 69.5t154.5 186.5h158q-61 -178 -211 -287t-334 -109q-250 0 -421 171t-171 421zM242 647h858q-39 168 -155 264.5t-279 96.5q-160 0 -276.5 -98.5 t-147.5 -262.5zM305 1255l297 258h135l293 -258h-182l-176 152l-180 -152h-187z" />
<glyph unicode="&#xeb;" horiz-adv-x="1331" d="M86 565q0 246 168 414t412 168q266 0 425.5 -173t159.5 -464h-1013q0 -164 131 -280.5t305 -116.5q129 0 236.5 69.5t154.5 186.5h158q-61 -178 -211 -287t-334 -109q-250 0 -421 171t-171 421zM242 647h858q-39 168 -155 264.5t-279 96.5q-160 0 -276.5 -98.5 t-147.5 -262.5zM442 1255v258h152v-258h-152zM743 1255v258h152v-258h-152z" />
<glyph unicode="&#xec;" horiz-adv-x="409" d="M-31 1473l66 122l405 -221l-67 -119zM129 0v1120h152v-1120h-152z" />
<glyph unicode="&#xed;" horiz-adv-x="409" d="M-27 1370l396 238l69 -119l-395 -234zM129 0v1120h152v-1120h-152z" />
<glyph unicode="&#xee;" horiz-adv-x="409" d="M-158 1255l297 258h135l293 -258h-182l-176 152l-180 -152h-187zM129 0v1120h152v-1120h-152z" />
<glyph unicode="&#xef;" horiz-adv-x="409" d="M-20 1255v258h151v-258h-151zM129 0v1120h152v-1120h-152zM281 1255v258h151v-258h-151z" />
<glyph unicode="&#xf0;" horiz-adv-x="1341" d="M86 561q0 252 169 419t421 167q59 0 123 -17l-156 158l-194 -86l-46 107l156 67l-139 137h194l76 -71l209 88l47 -105l-170 -73l209 -219q162 -168 216 -282t54 -276q0 -268 -158.5 -435t-412.5 -167q-260 0 -429 167t-169 421zM240 553q0 -190 124.5 -315t317.5 -125 q186 0 303 122.5t117 321.5q0 197 -121 324t-307 127q-190 0 -312 -128t-122 -327z" />
<glyph unicode="&#xf1;" horiz-adv-x="1249" d="M129 0v1120h152v-145q141 172 360 172q236 0 357.5 -142.5t121.5 -416.5v-588h-151v588q0 420 -346 420q-168 0 -255 -99.5t-87 -292.5v-616h-152zM328 1376q82 88 180 88q57 0 130 -41t110 -41q35 0 96 39l14 11l64 -99q-94 -78 -174 -78q-57 0 -132 41l-20 13 q-51 27 -88 26q-31 0 -45 -6t-60 -39l-14 -10z" />
<glyph unicode="&#xf2;" horiz-adv-x="1341" d="M86 557q0 254 166 422t420 168t418.5 -167t164.5 -423q0 -252 -161.5 -418t-409.5 -166q-258 0 -428 166t-170 418zM240 553q0 -190 124.5 -315t315.5 -125q186 0 304 123.5t118 318.5q0 197 -122 325t-306 128q-190 0 -312 -128t-122 -327zM434 1473l66 122l405 -221 l-67 -119z" />
<glyph unicode="&#xf3;" horiz-adv-x="1341" d="M86 557q0 254 166 422t420 168t418.5 -167t164.5 -423q0 -252 -161.5 -418t-409.5 -166q-258 0 -428 166t-170 418zM240 553q0 -190 124.5 -315t315.5 -125q186 0 304 123.5t118 318.5q0 197 -122 325t-306 128q-190 0 -312 -128t-122 -327zM438 1370l396 238l69 -119 l-395 -234z" />
<glyph unicode="&#xf4;" horiz-adv-x="1341" d="M86 557q0 254 166 422t420 168t418.5 -167t164.5 -423q0 -252 -161.5 -418t-409.5 -166q-258 0 -428 166t-170 418zM240 553q0 -190 124.5 -315t315.5 -125q186 0 304 123.5t118 318.5q0 197 -122 325t-306 128q-190 0 -312 -128t-122 -327zM307 1255l297 258h135 l293 -258h-182l-176 152l-180 -152h-187z" />
<glyph unicode="&#xf5;" horiz-adv-x="1341" d="M86 557q0 254 166 422t420 168t418.5 -167t164.5 -423q0 -252 -161.5 -418t-409.5 -166q-258 0 -428 166t-170 418zM240 553q0 -190 124.5 -315t315.5 -125q186 0 304 123.5t118 318.5q0 197 -122 325t-306 128q-190 0 -312 -128t-122 -327zM373 1376q82 88 180 88 q57 0 130 -41t110 -41q35 0 96 39l14 11l64 -99q-94 -78 -174 -78q-57 0 -131 41l-21 13q-51 27 -88 26q-31 0 -45 -6t-59 -39l-15 -10z" />
<glyph unicode="&#xf6;" horiz-adv-x="1341" d="M86 557q0 254 166 422t420 168t418.5 -167t164.5 -423q0 -252 -161.5 -418t-409.5 -166q-258 0 -428 166t-170 418zM240 553q0 -190 124.5 -315t315.5 -125q186 0 304 123.5t118 318.5q0 197 -122 325t-306 128q-190 0 -312 -128t-122 -327zM444 1255v258h152v-258h-152z M745 1255v258h152v-258h-152z" />
<glyph unicode="&#xf7;" horiz-adv-x="1241" d="M78 467v147h1085v-147h-1085zM545 82v258h151v-258h-151zM545 741v258h151v-258h-151z" />
<glyph unicode="&#xf8;" horiz-adv-x="1337" d="M86 557q0 246 170 418t416 172q164 0 299 -84l116 154l109 -87l-115 -151q170 -158 170 -406q0 -262 -162.5 -431t-414.5 -169q-86 0 -153.5 18.5t-155.5 65.5l-107 -137l-108 82l104 137q-90 106 -129 201.5t-39 216.5zM240 545q0 -84 22.5 -150.5t77.5 -146.5l549 710 q-98 49 -215 50q-184 0 -309 -133.5t-125 -329.5zM446 162q109 -49 216 -49q195 0 315.5 127t120.5 333q-1 172 -101 299z" />
<glyph unicode="&#xf9;" horiz-adv-x="1245" d="M129 516v604h152v-604q0 -403 333 -403q172 0 261.5 109.5t89.5 322.5v575h151v-1120h-151v174q-55 -102 -143.5 -151.5t-217.5 -49.5q-233 0 -354 137.5t-121 405.5zM387 1473l66 122l405 -221l-67 -119z" />
<glyph unicode="&#xfa;" horiz-adv-x="1245" d="M129 516v604h152v-604q0 -403 333 -403q172 0 261.5 109.5t89.5 322.5v575h151v-1120h-151v174q-55 -102 -143.5 -151.5t-217.5 -49.5q-233 0 -354 137.5t-121 405.5zM391 1370l395 238l70 -119l-395 -234z" />
<glyph unicode="&#xfb;" horiz-adv-x="1245" d="M129 516v604h152v-604q0 -403 333 -403q172 0 261.5 109.5t89.5 322.5v575h151v-1120h-151v174q-55 -102 -143.5 -151.5t-217.5 -49.5q-233 0 -354 137.5t-121 405.5zM260 1255l297 258h135l293 -258h-182l-176 152l-181 -152h-186z" />
<glyph unicode="&#xfc;" horiz-adv-x="1245" d="M129 516v604h152v-604q0 -403 333 -403q172 0 261.5 109.5t89.5 322.5v575h151v-1120h-151v174q-55 -102 -143.5 -151.5t-217.5 -49.5q-233 0 -354 137.5t-121 405.5zM397 1255v258h152v-258h-152zM698 1255v258h152v-258h-152z" />
<glyph unicode="&#xfd;" horiz-adv-x="1097" d="M18 1120h166l355 -893l379 893h161l-647 -1513h-162l183 430zM317 1370l394 238l71 -119l-395 -234z" />
<glyph unicode="&#xfe;" horiz-adv-x="1396" d="M129 -393v1906h152v-585q143 219 440 219q250 0 420 -168t170 -420q0 -248 -171 -417t-423 -169q-287 0 -436 220v-586h-152zM270 563q0 -193 127 -321.5t318 -128.5q188 0 315 127t127 317q0 195 -126 323t-316 128q-188 0 -316.5 -128t-128.5 -317z" />
<glyph unicode="&#xff;" horiz-adv-x="1097" d="M18 1120h166l355 -893l379 893h161l-647 -1513h-162l183 430zM324 1255v258h151v-258h-151zM625 1255v258h151v-258h-151z" />
<glyph unicode="&#x152;" horiz-adv-x="2445" d="M90 760q0 336 226.5 558t568.5 222q215 0 380 -85t261 -243v301h805v-137h-654v-542h631v-138h-631v-559h654v-137h-805v309q-190 -336 -615 -336q-354 0 -587.5 223.5t-233.5 563.5zM244 758q0 -274 187 -459.5t466 -185.5q274 0 452.5 182t178.5 467q0 279 -180 459 t-463 180q-279 0 -460 -181.5t-181 -461.5z" />
<glyph unicode="&#x153;" horiz-adv-x="2328" d="M86 561q0 250 166 418t410 168q326 0 505 -299q174 299 504 299q248 0 412 -160t164 -401v-17v-61h-1004q0 -168 130 -281.5t315 -113.5q264 0 383 254h153q-49 -172 -196.5 -283t-331.5 -111q-178 0 -317.5 82t-209.5 228q-94 -162 -210.5 -236t-280.5 -74 q-252 0 -422 168t-170 420zM240 559q0 -190 126 -318t312 -128q182 0 301 129t119 325q0 188 -124 314.5t-306 126.5q-184 0 -306 -128t-122 -321zM1245 645h858q-29 164 -148.5 263.5t-285.5 99.5q-158 0 -270.5 -96.5t-153.5 -266.5z" />
<glyph unicode="&#x178;" horiz-adv-x="1212" d="M4 1513h168l430 -847l440 847h166l-528 -1007v-506h-152v506zM381 1649v258h151v-258h-151zM682 1649v258h152v-258h-152z" />
<glyph unicode="&#x2c6;" horiz-adv-x="1028" d="M152 1255l297 258h135l293 -258h-183l-176 152l-180 -152h-186z" />
<glyph unicode="&#x2dc;" horiz-adv-x="899" d="M154 1376q82 88 180 88q57 0 130 -41t109 -41q35 0 97 39l14 11l64 -99q-94 -78 -175 -78q-57 0 -131 41l-20 13q-51 27 -88 26q-31 0 -45.5 -6t-59.5 -39l-14 -10z" />
<glyph unicode="&#x2000;" horiz-adv-x="1012" />
<glyph unicode="&#x2001;" horiz-adv-x="2025" />
<glyph unicode="&#x2002;" horiz-adv-x="1012" />
<glyph unicode="&#x2003;" horiz-adv-x="2025" />
<glyph unicode="&#x2004;" horiz-adv-x="675" />
<glyph unicode="&#x2005;" horiz-adv-x="506" />
<glyph unicode="&#x2006;" horiz-adv-x="337" />
<glyph unicode="&#x2007;" horiz-adv-x="337" />
<glyph unicode="&#x2008;" horiz-adv-x="253" />
<glyph unicode="&#x2009;" horiz-adv-x="405" />
<glyph unicode="&#x200a;" horiz-adv-x="112" />
<glyph unicode="&#x2010;" horiz-adv-x="679" d="M63 477v129h555v-129h-555z" />
<glyph unicode="&#x2011;" horiz-adv-x="679" d="M63 477v129h555v-129h-555z" />
<glyph unicode="&#x2012;" horiz-adv-x="679" d="M63 477v129h555v-129h-555z" />
<glyph unicode="&#x2013;" horiz-adv-x="1024" d="M16 477v129h994v-129h-994z" />
<glyph unicode="&#x2014;" horiz-adv-x="2048" d="M184 477v129h1680v-129h-1680z" />
<glyph unicode="&#x2018;" horiz-adv-x="718" d="M201 1513h151l180 -393h-151z" />
<glyph unicode="&#x2019;" horiz-adv-x="718" d="M186 1120l181 393h151l-180 -393h-152z" />
<glyph unicode="&#x201a;" horiz-adv-x="724" d="M182 -137l180 395h152l-180 -395h-152z" />
<glyph unicode="&#x201c;" horiz-adv-x="1028" d="M197 1513h151l180 -393h-151zM500 1513h151l180 -393h-151z" />
<glyph unicode="&#x201d;" horiz-adv-x="991" d="M178 1120l180 393h152l-180 -393h-152zM473 1120l180 393h152l-180 -393h-152z" />
<glyph unicode="&#x201e;" horiz-adv-x="1028" d="M182 -137l180 395h152l-180 -395h-152zM483 -137l181 395h151l-180 -395h-152z" />
<glyph unicode="&#x2022;" horiz-adv-x="1241" d="M242 621q0 158 110.5 268t268.5 110t268 -110.5t110 -267.5q0 -158 -110.5 -268.5t-267.5 -110.5q-158 0 -268.5 110.5t-110.5 268.5z" />
<glyph unicode="&#x2026;" horiz-adv-x="2048" d="M266 0v258h152v-258h-152zM948 0v258h152v-258h-152zM1630 0v258h152v-258h-152z" />
<glyph unicode="&#x202f;" horiz-adv-x="405" />
<glyph unicode="&#x2039;" horiz-adv-x="514" d="M82 614l229 408l121 -66l-190 -342l190 -344l-121 -67z" />
<glyph unicode="&#x203a;" horiz-adv-x="514" d="M82 270l190 344l-190 342l121 66l229 -408l-229 -411z" />
<glyph unicode="&#x205f;" horiz-adv-x="506" />
<glyph unicode="&#x2122;" horiz-adv-x="2048" d="M129 1391v118h717v-118h-295v-699h-131v699h-291zM944 692v817h223l260 -581l277 581h217v-817h-131v705l-320 -705h-86l-309 707v-707h-131z" />
<glyph unicode="&#x25fc;" horiz-adv-x="1116" d="M0 0v1116h1116v-1116h-1116z" />
</font>
</defs>
</svg>
